<svg width="23" height="20" viewBox="0 0 23 20" fill="none" xmlns="http://www.w3.org/2000/svg">
<path d="M9.71946 8.00781L9.95384 12.3828C9.97988 12.487 10.032 12.5911 10.1101 12.6953C10.2143 12.7734 10.3184 12.8125 10.4226 12.8125H12.0632C12.1674 12.8125 12.2585 12.7734 12.3366 12.6953C12.4408 12.5911 12.5059 12.487 12.532 12.3828L12.7663 8.00781C12.7924 7.8776 12.7533 7.76042 12.6491 7.65625C12.545 7.55208 12.4278 7.5 12.2976 7.5H10.1882C10.058 7.5 9.94081 7.55208 9.83665 7.65625C9.73248 7.76042 9.69342 7.8776 9.71946 8.00781ZM12.8835 15C12.8835 15.4427 12.7143 15.8333 12.3757 16.1719C12.0632 16.4844 11.6856 16.6406 11.2429 16.6406C10.8002 16.6406 10.4096 16.4844 10.071 16.1719C9.75852 15.8333 9.60227 15.4427 9.60227 15C9.60227 14.5573 9.75852 14.1797 10.071 13.8672C10.4096 13.5286 10.8002 13.3594 11.2429 13.3594C11.6856 13.3594 12.0632 13.5286 12.3757 13.8672C12.7143 14.1797 12.8835 14.5573 12.8835 15ZM12.8835 0.9375C12.6491 0.520833 12.3106 0.247396 11.8679 0.117188C11.4512 -0.0390625 11.0215 -0.0390625 10.5788 0.117188C10.1622 0.247396 9.83665 0.520833 9.60227 0.9375L0.227273 17.1875C0.0189394 17.6042 -0.0461648 18.0208 0.0319602 18.4375C0.110085 18.8802 0.318419 19.2448 0.65696 19.5312C0.995502 19.8438 1.39915 20 1.8679 20H20.6179C21.0866 20 21.4903 19.8438 21.8288 19.5312C22.1674 19.2448 22.3757 18.8802 22.4538 18.4375C22.532 18.0208 22.4669 17.6042 22.2585 17.1875L12.8835 0.9375ZM2.06321 17.7734L11.0476 2.22656C11.0997 2.14844 11.1648 2.10938 11.2429 2.10938C11.321 2.10938 11.3861 2.14844 11.4382 2.22656L20.4226 17.7734C20.4747 17.8516 20.4747 17.9297 20.4226 18.0078C20.3705 18.0859 20.3054 18.125 20.2273 18.125H2.25852C2.1804 18.125 2.11529 18.0859 2.06321 18.0078C2.01113 17.9297 2.01113 17.8516 2.06321 17.7734Z" fill="white"/>
</svg>
