<svg width="24" height="24" viewBox="0 0 24 24" fill="none" xmlns="http://www.w3.org/2000/svg">
<path d="M12 10.8C11.6817 10.8 11.3765 10.9264 11.1515 11.1515C10.9264 11.3765 10.8 11.6817 10.8 12V16.8C10.8 17.1183 10.9264 17.4235 11.1515 17.6485C11.3765 17.8736 11.6817 18 12 18C12.3183 18 12.6235 17.8736 12.8485 17.6485C13.0736 17.4235 13.2 17.1183 13.2 16.8V12C13.2 11.6817 13.0736 11.3765 12.8485 11.1515C12.6235 10.9264 12.3183 10.8 12 10.8ZM12.456 6.096C12.1638 5.97598 11.8362 5.97598 11.544 6.096C11.3967 6.15311 11.2621 6.23875 11.148 6.348C11.042 6.46464 10.9568 6.59858 10.896 6.744C10.8288 6.88641 10.7959 7.04259 10.8 7.2C10.7991 7.35793 10.8294 7.51448 10.8891 7.66069C10.9488 7.80689 11.0368 7.93987 11.148 8.052C11.2646 8.158 11.3986 8.24323 11.544 8.304C11.7258 8.37869 11.9232 8.40758 12.1187 8.38813C12.3143 8.36869 12.5021 8.3015 12.6657 8.19248C12.8292 8.08346 12.9634 7.93594 13.0566 7.76288C13.1498 7.58983 13.199 7.39654 13.2 7.2C13.1956 6.88228 13.0713 6.57796 12.852 6.348C12.7379 6.23875 12.6033 6.15311 12.456 6.096ZM12 0C9.62663 0 7.30655 0.703788 5.33316 2.02236C3.35977 3.34094 1.8217 5.21508 0.913451 7.4078C0.00519941 9.60051 -0.232441 12.0133 0.230582 14.3411C0.693605 16.6689 1.83649 18.807 3.51472 20.4853C5.19295 22.1635 7.33115 23.3064 9.65892 23.7694C11.9867 24.2324 14.3995 23.9948 16.5922 23.0865C18.7849 22.1783 20.6591 20.6402 21.9776 18.6668C23.2962 16.6934 24 14.3734 24 12C24 10.4241 23.6896 8.8637 23.0866 7.4078C22.4835 5.95189 21.5996 4.62902 20.4853 3.51472C19.371 2.40041 18.0481 1.5165 16.5922 0.913445C15.1363 0.310389 13.5759 0 12 0ZM12 21.6C10.1013 21.6 8.24524 21.037 6.66653 19.9821C5.08782 18.9272 3.85736 17.4279 3.13076 15.6738C2.40416 13.9196 2.21405 11.9893 2.58447 10.1271C2.95488 8.26491 3.8692 6.55436 5.21178 5.21177C6.55436 3.86919 8.26492 2.95488 10.1271 2.58446C11.9894 2.21404 13.9196 2.40415 15.6738 3.13076C17.4279 3.85736 18.9272 5.08781 19.9821 6.66652C21.037 8.24524 21.6 10.1013 21.6 12C21.6 14.5461 20.5886 16.9879 18.7882 18.7882C16.9879 20.5886 14.5461 21.6 12 21.6Z" fill="white"/>
</svg>
