<svg width="11" height="11" viewBox="0 0 11 11" fill="none" xmlns="http://www.w3.org/2000/svg">
<path d="M6.60282 5.49963L10.8028 1.3063C10.9284 1.18077 10.9989 1.0105 10.9989 0.832969C10.9989 0.655434 10.9284 0.485171 10.8028 0.359635C10.6773 0.2341 10.507 0.163574 10.3295 0.163574C10.152 0.163574 9.98169 0.2341 9.85615 0.359635L5.66282 4.55964L1.46949 0.359635C1.34395 0.2341 1.17369 0.163574 0.996155 0.163574C0.81862 0.163574 0.648357 0.2341 0.522821 0.359635C0.397286 0.485171 0.32676 0.655434 0.32676 0.832969C0.32676 1.0105 0.397286 1.18077 0.522821 1.3063L4.72282 5.49963L0.522821 9.69297C0.460336 9.75494 0.41074 9.82868 0.376894 9.90992C0.343048 9.99116 0.325623 10.0783 0.325623 10.1663C0.325623 10.2543 0.343048 10.3414 0.376894 10.4227C0.41074 10.5039 0.460336 10.5777 0.522821 10.6396C0.584797 10.7021 0.658531 10.7517 0.73977 10.7856C0.82101 10.8194 0.908147 10.8368 0.996155 10.8368C1.08416 10.8368 1.1713 10.8194 1.25254 10.7856C1.33378 10.7517 1.40751 10.7021 1.46949 10.6396L5.66282 6.43963L9.85615 10.6396C9.91813 10.7021 9.99186 10.7517 10.0731 10.7856C10.1543 10.8194 10.2415 10.8368 10.3295 10.8368C10.4175 10.8368 10.5046 10.8194 10.5859 10.7856C10.6671 10.7517 10.7408 10.7021 10.8028 10.6396C10.8653 10.5777 10.9149 10.5039 10.9487 10.4227C10.9826 10.3414 11 10.2543 11 10.1663C11 10.0783 10.9826 9.99116 10.9487 9.90992C10.9149 9.82868 10.8653 9.75494 10.8028 9.69297L6.60282 5.49963Z" fill="#1A1A2E"/>
</svg>
