<svg width="48" height="48" viewBox="0 0 48 48" fill="none" xmlns="http://www.w3.org/2000/svg">
<g clip-path="url(#clip0)">
<ellipse cx="23.7419" cy="23.7419" rx="23.7419" ry="23.7419" fill="black"/>
<path fill-rule="evenodd" clip-rule="evenodd" d="M31.0859 26.5273C37.3699 27.4566 41.7543 29.5584 41.7543 32.0024C41.7543 35.3074 33.736 37.9867 23.8449 37.9867C13.9538 37.9867 5.93555 35.3074 5.93555 32.0024C5.93555 29.5584 10.32 27.4566 16.6039 26.5273C18.7623 26.9663 21.2273 27.2149 23.8449 27.2149C26.3968 27.2149 28.8038 26.9786 30.923 26.5603L31.0859 26.5273Z" fill="white"/>
<path fill-rule="evenodd" clip-rule="evenodd" d="M28.3775 16.6885C34.0689 17.3222 38.1723 19.1167 38.1723 21.2314C38.1723 23.8755 31.7577 26.0189 23.8448 26.0189C15.932 26.0189 9.51733 23.8755 9.51733 21.2314C9.51733 19.1167 13.6208 17.3222 19.3122 16.6885C20.7062 16.9164 22.2377 17.0424 23.8448 17.0424C25.3957 17.0424 26.8762 16.9251 28.2307 16.7121L28.3775 16.6885Z" fill="white"/>
<path d="M23.845 16.0845C29.7796 16.0845 34.5906 14.477 34.5906 12.4939C34.5906 10.5109 29.7796 8.90332 23.845 8.90332C17.9103 8.90332 13.0994 10.5109 13.0994 12.4939C13.0994 14.477 17.9103 16.0845 23.845 16.0845Z" fill="white"/>
</g>
<defs>
<clipPath id="clip0">
<rect width="47.4839" height="48" fill="white"/>
</clipPath>
</defs>
</svg>
